<svg width="512" height="512" viewBox="0 0 512 512" fill="none" xmlns="http://www.w3.org/2000/svg">
<path d="M446.08 369.92C451.04 374.8 445.76 399.84 436.24 409.36C432.315 413.285 426.991 415.49 421.44 415.49C415.889 415.49 410.565 413.285 406.64 409.36C402.715 405.435 400.51 400.111 400.51 394.56C400.51 389.009 402.715 383.685 406.64 379.76C416.16 370.24 441.2 364.96 446.08 369.92ZM358.08 433.92C363.04 438.8 357.76 463.84 348.24 473.36C344.315 477.285 338.991 479.49 333.44 479.49C327.889 479.49 322.565 477.285 318.64 473.36C314.715 469.435 312.51 464.111 312.51 458.56C312.51 453.009 314.715 447.685 318.64 443.76C328.16 434.24 353.2 428.96 358.08 433.92ZM70.08 457.92C75.04 462.8 69.76 487.84 60.24 497.36C58.3803 499.447 56.1003 501.117 53.5496 502.26C50.9989 503.404 48.2353 503.995 45.44 503.995C42.6447 503.995 39.8811 503.404 37.3304 502.26C34.7797 501.117 32.4997 499.447 30.64 497.36C28.5531 495.5 26.8832 493.22 25.7397 490.67C24.5962 488.119 24.0051 485.355 24.0051 482.56C24.0051 479.765 24.5962 477.001 25.7397 474.45C26.8832 471.9 28.5531 469.62 30.64 467.76C40.16 458.24 65.2 452.96 70.08 457.92ZM214.08 457.92C219.04 462.8 213.76 487.84 204.24 497.36C200.315 501.285 194.991 503.49 189.44 503.49C183.889 503.49 178.565 501.285 174.64 497.36C170.715 493.435 168.51 488.111 168.51 482.56C168.51 477.009 170.715 471.685 174.64 467.76C184.16 458.24 209.2 452.96 214.08 457.92ZM174.08 377.92C179.04 382.8 173.76 407.84 164.24 417.36C162.38 419.447 160.1 421.117 157.55 422.26C154.999 423.404 152.235 423.995 149.44 423.995C146.645 423.995 143.881 423.404 141.33 422.26C138.78 421.117 136.5 419.447 134.64 417.36C132.553 415.5 130.883 413.22 129.74 410.67C128.596 408.119 128.005 405.355 128.005 402.56C128.005 399.765 128.596 397.001 129.74 394.45C130.883 391.9 132.553 389.62 134.64 387.76C144.16 378.24 169.2 372.96 174.08 377.92ZM286.08 353.92C291.04 358.8 285.76 383.84 276.24 393.36C272.315 397.285 266.991 399.49 261.44 399.49C255.889 399.49 250.565 397.285 246.64 393.36C242.715 389.435 240.51 384.111 240.51 378.56C240.51 373.009 242.715 367.685 246.64 363.76C256.16 354.24 281.2 348.96 286.08 353.92ZM214.08 289.92C219.04 294.8 213.76 319.84 204.24 329.36C200.315 333.285 194.991 335.49 189.44 335.49C183.889 335.49 178.565 333.285 174.64 329.36C170.715 325.435 168.51 320.111 168.51 314.56C168.51 309.009 170.715 303.685 174.64 299.76C184.16 290.24 209.2 284.96 214.08 289.92Z" fill="#7AAEEF"/>
<path d="M96 240C107.046 240.038 117.843 236.718 126.96 230.48L128 232L96 272H144L40 384L88 296H40L80 240L80.56 237.84C85.5767 239.295 90.7765 240.023 96 240ZM400 232L352 288H424L280 440L336 328H280L328 264C341.532 264.005 354.716 259.716 365.656 251.752C376.596 243.788 384.727 232.559 388.88 219.68C392.341 223.896 396.445 227.541 401.04 230.48L400 232Z" fill="#FFDC70"/>
<path d="M450.56 131.2C463.008 135.599 473.502 144.254 480.188 155.638C486.874 167.022 489.324 180.403 487.104 193.417C484.884 206.431 478.137 218.243 468.054 226.766C457.972 235.29 445.202 239.977 432 240C420.954 240.038 410.157 236.718 401.04 230.48C396.445 227.541 392.341 223.896 388.88 219.68C384.727 232.559 376.596 243.788 365.656 251.752C354.716 259.716 341.532 264.005 328 264C292.64 264 272 248 264 216C256 248 235.36 264 200 264C186.468 264.005 173.284 259.716 162.344 251.752C151.404 243.788 143.273 232.559 139.12 219.68C135.659 223.896 131.555 227.541 126.96 230.48C120.236 235.028 112.595 238.044 104.578 239.315C96.5603 240.587 88.3615 240.083 80.56 237.84C69.7897 234.753 60.193 228.506 53.0104 219.908C45.8278 211.309 41.3897 200.753 40.2698 189.605C39.1498 178.457 41.3995 167.23 46.7281 157.374C52.0566 147.518 60.219 139.488 70.16 134.32C63.9058 129.044 59.4269 121.971 57.3317 114.061C55.2364 106.152 55.6264 97.7891 58.4486 90.1088C61.2708 82.4286 66.3885 75.8031 73.1066 71.1321C79.8247 66.4611 87.8177 63.971 96 64C105.005 64.0143 113.732 67.1209 120.72 72.7999C120.275 69.887 120.035 66.9465 120 64C120.023 50.7976 124.71 38.028 133.234 27.9455C141.757 17.8631 153.569 11.1163 166.583 8.8962C179.597 6.67609 192.978 9.1255 204.362 15.812C215.746 22.4984 224.401 32.992 228.8 45.4399C232.135 38.9807 237.184 33.5638 243.392 29.7823C249.601 26.0008 256.73 24.0005 264 24.0005C271.27 24.0005 278.399 26.0008 284.608 29.7823C290.816 33.5638 295.865 38.9807 299.2 45.4399C303.599 32.992 312.254 22.4984 323.638 15.812C335.022 9.1255 348.403 6.67609 361.417 8.8962C374.431 11.1163 386.243 17.8631 394.766 27.9455C403.29 38.028 407.977 50.7976 408 64V64.16C412.391 60.8179 417.428 58.4242 422.792 57.1304C428.156 55.8366 433.73 55.671 439.162 56.6441C444.593 57.6171 449.763 59.7076 454.345 62.7831C458.926 65.8586 462.819 69.8521 465.776 74.5106C468.734 79.169 470.691 84.391 471.525 89.8455C472.359 95.3001 472.051 100.868 470.621 106.198C469.19 111.527 466.668 116.501 463.215 120.805C459.762 125.109 455.453 128.649 450.56 131.2Z" fill="#B0AFB5"/>
<path d="M432 176C423.758 176.008 415.617 174.19 408.161 170.676C400.705 167.163 394.121 162.041 388.88 155.68C384.727 168.559 376.596 179.788 365.656 187.752C354.716 195.716 341.532 200.005 328 200C292.64 200 272 184 264 152C256 184 235.36 200 200 200C186.468 200.005 173.284 195.716 162.344 187.752C151.404 179.788 143.273 168.559 139.12 155.68C133.63 162.328 126.677 167.617 118.805 171.133C110.933 174.65 102.354 176.299 93.7393 175.952C85.1244 175.605 76.7063 173.271 69.1424 169.133C61.5786 164.995 55.0738 159.164 50.136 152.096C41.848 163.936 38.4669 178.526 40.7018 192.805C42.9368 207.084 50.6142 219.943 62.1238 228.684C73.6333 237.426 88.0807 241.371 102.436 239.692C116.791 238.014 129.938 230.841 139.12 219.68C143.273 232.559 151.404 243.788 162.344 251.752C173.284 259.716 186.468 264.005 200 264C235.36 264 256 248 264 216C272 248 292.64 264 328 264C341.532 264.005 354.716 259.716 365.656 251.752C376.596 243.788 384.727 232.559 388.88 219.68C398.067 230.853 411.225 238.033 425.592 239.714C439.959 241.394 454.419 237.444 465.937 228.693C477.454 219.942 485.135 207.07 487.366 192.778C489.597 178.486 486.206 163.885 477.904 152.04C472.754 159.442 465.889 165.487 457.896 169.66C449.902 173.832 441.017 176.007 432 176Z" fill="#959499"/>
<path d="M126.96 230.48C120.236 235.028 112.595 238.044 104.578 239.315C96.5603 240.587 88.3615 240.083 80.56 237.84L80 240L68.168 256.568C76.6339 261.441 86.2317 264.004 96 264C98.2516 263.995 100.501 263.856 102.736 263.584L128 232L126.96 230.48ZM401.04 230.48C396.445 227.541 392.341 223.896 388.88 219.68C384.727 232.559 376.596 243.788 365.656 251.752C354.716 259.716 341.532 264.005 328 264L311.2 286.4C316.739 287.445 322.363 287.981 328 288C338.823 287.991 349.464 285.215 358.912 279.936L387.848 246.176C388.168 245.328 388.6 244.576 388.88 243.68C389.056 243.896 389.272 244.088 389.456 244.304L400 232L401.04 230.48Z" fill="#F3B83A"/>
<path d="M384 92.704C384.12 97.28 388.072 100.52 391.4 103.456C393.75 105.524 395.948 107.759 397.976 110.144C403.576 116.768 408.616 125.016 416.72 127.48C418.743 128.209 420.963 128.172 422.96 127.376C424.196 126.734 425.285 125.843 426.16 124.76C429.101 121.183 431.024 116.881 431.728 112.305C432.431 107.728 431.89 103.047 430.16 98.752C427.724 93.9537 424.192 89.7968 419.85 86.6181C415.508 83.4394 410.478 81.3283 405.168 80.456C397.72 78.56 383.744 82.56 384 92.704ZM356 48C355.648 50.912 358.176 53.216 360.344 55.112C363.387 57.7736 366.167 60.7204 368.648 63.912C370.176 65.888 372.048 68.184 374.488 67.96C375.164 67.8578 375.809 67.6076 376.378 67.2273C376.946 66.847 377.424 66.346 377.776 65.76C378.492 64.566 379 63.2596 379.28 61.896C379.754 60.2451 379.98 58.5332 379.952 56.816C379.762 54.7781 379.08 52.8167 377.965 51.1001C376.851 49.3835 375.336 47.9629 373.552 46.96C370.264 44.984 356.896 40.928 356 48Z" fill="#E8E7F0"/>
<path d="M444.24 393.36C442.38 395.447 440.1 397.117 437.55 398.26C434.999 399.404 432.235 399.995 429.44 399.995C426.645 399.995 423.881 399.404 421.33 398.26C418.78 397.117 416.5 395.447 414.64 393.36C412.617 391.442 410.994 389.142 409.864 386.594C408.734 384.046 408.12 381.299 408.056 378.512C407.56 378.92 407.072 379.312 406.64 379.76C402.715 383.685 400.51 389.009 400.51 394.56C400.51 400.111 402.715 405.435 406.64 409.36C410.565 413.285 415.889 415.49 421.44 415.49C426.991 415.49 432.315 413.285 436.24 409.36C440.603 404.353 443.764 398.415 445.48 392C445.072 392.448 444.664 392.936 444.24 393.36ZM356.24 457.36C354.38 459.447 352.1 461.117 349.55 462.26C346.999 463.404 344.235 463.995 341.44 463.995C338.645 463.995 335.881 463.404 333.33 462.26C330.78 461.117 328.5 459.447 326.64 457.36C324.617 455.442 322.994 453.142 321.864 450.594C320.734 448.046 320.12 445.299 320.056 442.512C319.56 442.92 319.072 443.312 318.64 443.76C314.715 447.685 312.51 453.009 312.51 458.56C312.51 464.111 314.715 469.435 318.64 473.36C322.565 477.285 327.889 479.49 333.44 479.49C338.991 479.49 344.315 477.285 348.24 473.36C352.603 468.353 355.764 462.415 357.48 456C357.072 456.448 356.664 456.936 356.24 457.36ZM212.24 481.36C210.38 483.447 208.1 485.117 205.55 486.26C202.999 487.404 200.235 487.995 197.44 487.995C194.645 487.995 191.881 487.404 189.33 486.26C186.78 485.117 184.5 483.447 182.64 481.36C180.617 479.442 178.994 477.142 177.864 474.594C176.734 472.046 176.12 469.299 176.056 466.512C175.56 466.92 175.072 467.312 174.64 467.76C170.715 471.685 168.51 477.009 168.51 482.56C168.51 488.111 170.715 493.435 174.64 497.36C178.565 501.285 183.889 503.49 189.44 503.49C194.991 503.49 200.315 501.285 204.24 497.36C208.603 492.353 211.764 486.415 213.48 480C213.072 480.448 212.664 480.936 212.24 481.36ZM68.24 481.36C66.3803 483.447 64.1003 485.117 61.5496 486.26C58.9989 487.404 56.2353 487.995 53.44 487.995C50.6447 487.995 47.8811 487.404 45.3304 486.26C42.7797 485.117 40.4997 483.447 38.64 481.36C36.6173 479.442 34.9942 477.142 33.8642 474.594C32.7342 472.046 32.1197 469.299 32.056 466.512C31.56 466.92 31.072 467.312 30.64 467.76C28.5531 469.62 26.8832 471.9 25.7397 474.45C24.5962 477.001 24.0051 479.765 24.0051 482.56C24.0051 485.355 24.5962 488.119 25.7397 490.67C26.8832 493.22 28.5531 495.5 30.64 497.36C32.4997 499.447 34.7797 501.117 37.3304 502.26C39.8811 503.404 42.6447 503.995 45.44 503.995C48.2353 503.995 50.9989 503.404 53.5496 502.26C56.1003 501.117 58.3803 499.447 60.24 497.36C64.6033 492.353 67.7639 486.415 69.48 480C69.072 480.448 68.664 480.936 68.24 481.36ZM172.24 401.36C170.38 403.447 168.1 405.117 165.55 406.26C162.999 407.404 160.235 407.995 157.44 407.995C154.645 407.995 151.881 407.404 149.33 406.26C146.78 405.117 144.5 403.447 142.64 401.36C140.617 399.442 138.994 397.142 137.864 394.594C136.734 392.046 136.12 389.299 136.056 386.512C135.56 386.92 135.072 387.312 134.64 387.76C132.553 389.62 130.883 391.9 129.74 394.45C128.596 397.001 128.005 399.765 128.005 402.56C128.005 405.355 128.596 408.119 129.74 410.67C130.883 413.22 132.553 415.5 134.64 417.36C136.5 419.447 138.78 421.117 141.33 422.26C143.881 423.404 146.645 423.995 149.44 423.995C152.235 423.995 154.999 423.404 157.55 422.26C160.1 421.117 162.38 419.447 164.24 417.36C168.603 412.353 171.764 406.415 173.48 400C173.072 400.448 172.664 400.936 172.24 401.36ZM284.24 377.36C282.38 379.447 280.1 381.117 277.55 382.26C274.999 383.404 272.235 383.995 269.44 383.995C266.645 383.995 263.881 383.404 261.33 382.26C258.78 381.117 256.5 379.447 254.64 377.36C252.617 375.442 250.994 373.142 249.864 370.594C248.734 368.046 248.12 365.299 248.056 362.512C247.56 362.92 247.072 363.312 246.64 363.76C242.715 367.685 240.51 373.009 240.51 378.56C240.51 384.111 242.715 389.435 246.64 393.36C250.565 397.285 255.889 399.49 261.44 399.49C266.991 399.49 272.315 397.285 276.24 393.36C280.603 388.353 283.764 382.415 285.48 376C285.072 376.448 284.664 376.936 284.24 377.36ZM212.24 313.36C210.38 315.447 208.1 317.117 205.55 318.26C202.999 319.404 200.235 319.995 197.44 319.995C194.645 319.995 191.881 319.404 189.33 318.26C186.78 317.117 184.5 315.447 182.64 313.36C180.617 311.442 178.994 309.142 177.864 306.594C176.734 304.046 176.12 301.299 176.056 298.512C175.56 298.92 175.072 299.312 174.64 299.76C170.715 303.685 168.51 309.009 168.51 314.56C168.51 320.111 170.715 325.435 174.64 329.36C178.565 333.285 183.889 335.49 189.44 335.49C194.991 335.49 200.315 333.285 204.24 329.36C208.609 324.342 211.769 318.39 213.48 311.96C213.072 312.448 212.664 312.936 212.24 313.36Z" fill="#6994D4"/>
</svg>
