<svg width="512" height="512" viewBox="0 0 512 512" fill="none" xmlns="http://www.w3.org/2000/svg">
<path d="M464 168C464 182.852 458.1 197.096 447.598 207.598C437.096 218.1 422.852 224 408 224C393.148 224 378.904 218.1 368.402 207.598C357.9 197.096 352 182.852 352 168C352 137.072 408 64 408 64C408 64 464 137.072 464 168Z" fill="#CCEDFF"/>
<path d="M464 168.64C463.973 182.142 459.069 195.181 450.19 205.353C441.311 215.526 429.055 222.148 415.68 224C420.859 218.838 424.967 212.703 427.767 205.948C430.568 199.194 432.007 191.952 432 184.64C432 162.24 402.72 117.76 386.56 94.8799C398.08 77.5999 408 64.6399 408 64.6399C408 64.6399 464 137.76 464 168.64Z" fill="white"/>
<path d="M336 320C336 240.464 192 48 192 48C192 48 48 240.464 48 320C48 358.191 63.1714 394.818 90.1766 421.823C117.182 448.829 153.809 464 192 464C230.191 464 266.818 448.829 293.823 421.823C320.829 394.818 336 358.191 336 320Z" fill="#CCEDFF"/>
<path d="M336 320C336.018 349.794 326.773 378.858 309.545 403.166C292.317 427.474 267.958 445.826 239.84 455.68C259.599 442.594 275.803 424.812 287 403.925C298.198 383.038 304.039 359.699 304 336C304 269.44 203.04 123.68 170.24 78.08C183.36 59.52 192 48 192 48C192 48 336 240.48 336 320Z" fill="white"/>
<path d="M464 382.08C428.8 382.08 428.8 353.92 393.6 353.92C358.4 353.92 358.4 382.08 323.2 382.08C288 382.08 288 353.92 252.8 353.92C217.6 353.92 217.6 382.08 182.4 382.08V316.16C217.6 316.16 217.6 288 252.8 288C288 288 288 316.16 323.2 316.16C358.4 316.16 358.32 288 393.6 288C428.88 288 428.8 316.16 464 316.16V382.08Z" fill="#CCEDFF"/>
<path d="M464 300.16C459.296 300.188 454.635 299.266 450.297 297.448C445.958 295.631 442.031 292.956 438.752 289.584C426.41 278.279 410.281 272.008 393.544 272.008C376.807 272.008 360.678 278.279 348.336 289.584L347.68 290.096C324.224 198.784 209.872 45.1679 204.8 38.3999C203.245 36.51 201.291 34.9879 199.078 33.9429C196.864 32.8979 194.447 32.356 192 32.356C189.553 32.356 187.136 32.8979 184.922 33.9429C182.709 34.9879 180.755 36.51 179.2 38.3999C164.128 58.5599 32 237.52 32 320C31.9966 348.978 39.863 377.413 54.7594 402.268C69.6558 427.124 91.0228 447.468 116.579 461.128C142.136 474.787 170.922 481.25 199.865 479.825C228.808 478.401 256.82 469.143 280.912 453.04C284.438 450.678 286.882 447.013 287.706 442.85C288.529 438.686 287.665 434.366 285.304 430.84C282.942 427.314 279.277 424.87 275.114 424.046C270.95 423.222 266.63 424.086 263.104 426.448C243.83 439.324 221.421 446.725 198.269 447.86C175.117 448.995 152.092 443.823 131.65 432.894C111.209 421.965 94.1186 405.691 82.204 385.808C70.2894 365.925 63.9975 343.179 64 320C64 265.008 147.072 137.76 192 75.1999C223.024 118.656 300.8 232.288 317.008 299.6C309.834 298.156 303.223 294.692 297.952 289.616C285.622 278.307 269.499 272.033 252.768 272.033C236.037 272.033 219.914 278.307 207.584 289.616C204.315 292.979 200.401 295.648 196.077 297.462C191.752 299.277 187.106 300.2 182.416 300.176C178.173 300.176 174.103 301.862 171.102 304.862C168.102 307.863 166.416 311.932 166.416 316.176C166.416 320.419 168.102 324.489 171.102 327.49C174.103 330.49 178.173 332.176 182.416 332.176C199.173 332.326 215.346 326.024 227.584 314.576C230.869 311.23 234.789 308.573 239.113 306.758C243.437 304.944 248.079 304.01 252.768 304.01C257.457 304.01 262.099 304.944 266.423 306.758C270.747 308.573 274.667 311.23 277.952 314.576C290.291 325.88 306.418 332.151 323.152 332.151C339.886 332.151 356.013 325.88 368.352 314.576C371.647 311.227 375.576 308.567 379.909 306.751C384.242 304.936 388.894 304.001 393.592 304.001C398.29 304.001 402.942 304.936 407.275 306.751C411.608 308.567 415.537 311.227 418.832 314.576C431.081 326.004 447.248 332.298 464 332.16C468.243 332.16 472.313 330.474 475.314 327.474C478.314 324.473 480 320.403 480 316.16C480 311.916 478.314 307.847 475.314 304.846C472.313 301.846 468.243 300.16 464 300.16Z" fill="#1AADFF"/>
<path d="M464 366.08C459.296 366.108 454.635 365.186 450.297 363.368C445.958 361.551 442.031 358.876 438.752 355.504C426.41 344.199 410.281 337.928 393.544 337.928C376.807 337.928 360.678 344.199 348.336 355.504C345.046 358.854 341.122 361.514 336.792 363.33C332.463 365.147 327.815 366.082 323.12 366.082C318.425 366.082 313.777 365.147 309.448 363.33C305.118 361.514 301.194 358.854 297.904 355.504C285.574 344.195 269.451 337.921 252.72 337.921C235.989 337.921 219.866 344.195 207.536 355.504C204.267 358.867 200.353 361.536 196.029 363.35C191.704 365.165 187.058 366.088 182.368 366.064C178.125 366.064 174.055 367.75 171.054 370.75C168.054 373.751 166.368 377.821 166.368 382.064C166.368 386.307 168.054 390.377 171.054 393.378C174.055 396.378 178.125 398.064 182.368 398.064C199.125 398.214 215.298 391.912 227.536 380.464C230.821 377.118 234.741 374.461 239.065 372.647C243.389 370.832 248.031 369.898 252.72 369.898C257.409 369.898 262.051 370.832 266.375 372.647C270.699 374.461 274.619 377.118 277.904 380.464C290.243 391.768 306.37 398.039 323.104 398.039C339.838 398.039 355.965 391.768 368.304 380.464C371.599 377.115 375.528 374.455 379.861 372.639C384.194 370.824 388.846 369.889 393.544 369.889C398.242 369.889 402.894 370.824 407.227 372.639C411.56 374.455 415.489 377.115 418.784 380.464C431.04 391.915 447.227 398.221 464 398.08C468.243 398.08 472.313 396.394 475.314 393.394C478.314 390.393 480 386.323 480 382.08C480 377.837 478.314 373.767 475.314 370.766C472.313 367.766 468.243 366.08 464 366.08ZM408 240C427.096 240 445.409 232.414 458.912 218.912C472.414 205.409 480 187.096 480 168C480 133.392 430.608 67.2 420.704 54.272C419.147 52.4182 417.202 50.9276 415.008 49.905C412.813 48.8824 410.421 48.3525 408 48.3525C405.579 48.3525 403.187 48.8824 400.992 49.905C398.798 50.9276 396.853 52.4182 395.296 54.272C385.392 67.2 336 133.392 336 168C336 187.096 343.586 205.409 357.088 218.912C370.591 232.414 388.904 240 408 240ZM408 91.2C427.456 118.944 448 153.6 448 168C448 178.609 443.786 188.783 436.284 196.284C428.783 203.786 418.609 208 408 208C397.391 208 387.217 203.786 379.716 196.284C372.214 188.783 368 178.609 368 168C368 153.6 388.544 118.944 408 91.2Z" fill="#1AADFF"/>
</svg>
