<svg width="512" height="512" viewBox="0 0 512 512" fill="none" xmlns="http://www.w3.org/2000/svg">
<g clip-path="url(#clip0_5_2)">
<path d="M84.145 38.5309C88.539 57.9769 112.133 65.641 127.113 52.492C129.645 50.27 133.438 53.023 132.105 56.117C124.227 74.43 138.809 94.4999 158.66 92.6679C162.016 92.3589 163.465 96.812 160.566 98.535C143.43 108.723 143.43 133.531 160.566 143.715C163.465 145.437 162.016 149.891 158.66 149.582C138.809 147.75 124.227 167.82 132.105 186.132C133.438 189.23 129.645 191.98 127.113 189.758C112.133 176.609 88.535 184.278 84.145 203.718C83.402 207.008 78.719 207.008 77.977 203.718C73.586 184.273 49.992 176.609 35.007 189.758C32.477 191.98 28.684 189.23 30.016 186.133C37.895 167.82 23.313 147.75 3.46101 149.582C0.105009 149.891 -1.34399 145.438 1.55501 143.715C18.691 133.531 18.691 108.723 1.55501 98.535C-1.33999 96.813 0.105009 92.3589 3.46101 92.6679C23.313 94.4999 37.895 74.43 30.016 56.118C28.684 53.023 32.476 50.27 35.008 52.492C49.992 65.641 73.586 57.977 77.977 38.532C78.719 35.242 83.402 35.242 84.145 38.532V38.5309Z" fill="#FD8F31"/>
<path d="M160.566 143.715C143.43 133.531 143.43 108.723 160.566 98.535C163.465 96.816 162.016 92.3589 158.66 92.6719C138.813 94.5039 124.23 74.43 132.105 56.117C133.438 53.023 129.648 50.27 127.113 52.492C112.133 65.645 88.5391 57.977 84.1451 38.532C83.4021 35.242 78.7191 35.242 77.9771 38.532C76.3521 45.722 72.1021 51.293 66.6331 54.809C86.0311 70.399 98.4571 94.305 98.4571 121.129C98.4571 147.949 86.0311 171.859 66.6331 187.449C72.1021 190.961 76.3521 196.535 77.9771 203.723C78.7191 207.012 83.4071 207.012 84.1451 203.723C88.5391 184.277 112.133 176.613 127.113 189.762C129.648 191.984 133.438 189.234 132.105 186.137C124.23 167.824 138.813 147.754 158.66 149.586C162.016 149.895 163.465 145.437 160.566 143.715Z" fill="#FF7F1F"/>
<path d="M115.934 121.125C115.934 140.387 100.32 155.996 81.059 155.996C61.801 155.996 46.188 140.386 46.188 121.125C46.188 101.867 61.801 86.254 81.058 86.254C100.32 86.254 115.934 101.867 115.934 121.125Z" fill="#FCCF3F"/>
<path d="M334.012 315.355V62.16C334.012 27.828 306.18 0 271.852 0C237.52 0 209.692 27.828 209.692 62.16V315.355C181.879 334.922 163.707 367.265 163.707 403.855C163.707 463.582 212.125 512 271.852 512C331.578 512 379.996 463.582 379.996 403.855C379.996 367.265 361.82 334.922 334.012 315.355Z" fill="#D8D8D8"/>
<path d="M271.852 476.582C230.668 476.582 197.164 443.074 197.164 401.895C197.164 370.621 216.598 342.777 245.758 331.915V62.16C245.758 47.77 257.461 36.066 271.852 36.066C286.238 36.066 297.945 47.77 297.945 62.16V331.914C327.102 342.774 346.539 370.617 346.539 401.891C346.539 443.074 313.035 476.582 271.852 476.582Z" fill="#F3E8D7"/>
<path d="M245.758 109.871V331.914C216.598 342.774 197.164 370.617 197.164 401.891C197.164 443.074 230.668 476.578 271.852 476.578C313.035 476.578 346.539 443.074 346.539 401.891C346.539 370.617 327.102 342.773 297.945 331.914V109.871H245.758Z" fill="#FC4E51"/>
<path d="M420.105 180.219H375.281C374.266 180.219 373.262 180.019 372.324 179.631C371.387 179.242 370.535 178.673 369.818 177.956C369.1 177.238 368.531 176.386 368.143 175.449C367.755 174.511 367.555 173.507 367.555 172.492C367.555 170.443 368.369 168.478 369.818 167.029C371.267 165.58 373.232 164.766 375.281 164.766H420.105C422.154 164.766 424.119 165.581 425.568 167.029C427.017 168.478 427.831 170.443 427.832 172.492C427.831 174.541 427.017 176.506 425.568 177.955C424.119 179.404 422.154 180.218 420.105 180.219ZM395.633 117.598H375.28C371.01 117.598 367.554 114.137 367.554 109.871C367.554 105.605 371.011 102.145 375.28 102.145H395.632C399.897 102.145 403.358 105.605 403.358 109.871C403.358 114.137 399.898 117.598 395.632 117.598H395.633ZM402.844 54.977H375.28C371.01 54.977 367.554 51.516 367.554 47.25C367.554 42.984 371.011 39.5229 375.28 39.5229H402.843C407.113 39.5229 410.569 42.984 410.569 47.25C410.569 51.516 407.112 54.977 402.843 54.977H402.844ZM402.844 305.46H375.28C373.231 305.46 371.266 304.646 369.817 303.197C368.368 301.748 367.554 299.783 367.554 297.734C367.554 296.719 367.753 295.715 368.142 294.777C368.53 293.84 369.099 292.988 369.816 292.27C370.534 291.553 371.386 290.984 372.323 290.596C373.261 290.207 374.265 290.008 375.28 290.008H402.843C403.858 290.008 404.862 290.207 405.8 290.596C406.737 290.984 407.589 291.553 408.307 292.27C409.024 292.988 409.593 293.84 409.981 294.777C410.37 295.715 410.569 296.719 410.569 297.734C410.569 298.749 410.369 299.753 409.981 300.691C409.593 301.628 409.024 302.48 408.306 303.198C407.589 303.915 406.737 304.484 405.8 304.873C404.862 305.261 403.858 305.461 402.843 305.461L402.844 305.46ZM395.633 242.84H375.28C371.01 242.84 367.554 239.379 367.554 235.113C367.554 230.847 371.011 227.387 375.28 227.387H395.632C399.897 227.387 403.358 230.847 403.358 235.113C403.358 239.379 399.898 242.84 395.632 242.84H395.633Z" fill="#0D6E9A"/>
<path d="M297.945 331.914V109.871H245.758V331.914C245.758 331.914 281.832 348.652 281.832 401.891C281.832 431.492 264.523 457.125 239.496 469.203C249.289 473.93 260.266 476.578 271.848 476.578C313.031 476.578 346.539 443.074 346.539 401.891C346.539 370.617 327.102 342.777 297.945 331.914Z" fill="#E5394B"/>
</g>
<defs>
<clipPath id="clip0_5_2">
<rect width="512" height="512" fill="white"/>
</clipPath>
</defs>
</svg>
