<svg width="512" height="512" viewBox="0 0 512 512" fill="none" xmlns="http://www.w3.org/2000/svg">
<g clip-path="url(#clip0_5_151)">
<path d="M287.439 311.855C258.15 311.855 227.76 302.858 194.797 284.466C165.249 267.979 133.658 252.242 102.847 248.755C69.489 244.979 40.079 256.062 12.937 282.635C11.4906 284.027 9.55269 284.792 7.54531 284.762C5.53793 284.732 3.6236 283.911 2.21912 282.476C0.814643 281.041 0.0337529 279.11 0.04647 277.103C0.0591871 275.095 0.864482 273.174 2.28702 271.757C32.909 241.779 66.358 229.307 104.558 233.629C138.039 237.417 171.279 253.912 202.214 271.173C235.398 289.689 265.447 297.959 294.089 296.459C327.77 294.692 359.87 278.67 389.497 248.837C392.459 245.853 397.279 245.838 400.261 248.8C403.243 251.762 403.26 256.581 400.298 259.565C367.924 292.163 332.459 309.691 294.886 311.662C292.412 311.79 289.928 311.855 287.439 311.855ZM246.311 231.146C242.237 231.146 238.096 230.914 233.879 230.449C207.483 227.544 181.282 216.009 155.944 204.854C106.328 183.009 59.459 162.374 12.641 203.6C11.126 204.934 9.14308 205.611 7.12857 205.483C5.11405 205.355 3.23293 204.432 1.89902 202.917C0.565114 201.402 -0.112309 199.419 0.0157788 197.405C0.143866 195.39 1.06697 193.509 2.58202 192.175C26.918 170.746 53.587 161.962 84.145 165.326C110.541 168.231 136.742 179.766 162.08 190.921C211.697 212.767 258.565 233.4 305.382 192.175C306.132 191.515 307.005 191.008 307.951 190.685C308.897 190.362 309.897 190.228 310.894 190.292C311.892 190.355 312.867 190.615 313.764 191.055C314.662 191.495 315.464 192.108 316.124 192.858C316.785 193.608 317.291 194.481 317.614 195.427C317.937 196.373 318.071 197.373 318.007 198.371C317.944 199.368 317.685 200.343 317.244 201.241C316.804 202.138 316.191 202.94 315.441 203.6C294.465 222.07 271.745 231.145 246.311 231.146ZM244.647 163.228C221.77 163.228 199.919 154.231 182.86 145.989C181.96 145.554 181.155 144.946 180.49 144.2C179.824 143.454 179.313 142.584 178.984 141.64C178.655 140.696 178.516 139.697 178.573 138.699C178.631 137.701 178.884 136.724 179.319 135.824C179.754 134.924 180.361 134.118 181.107 133.453C181.853 132.787 182.723 132.275 183.667 131.947C184.611 131.618 185.611 131.478 186.609 131.535C187.607 131.593 188.584 131.847 189.484 132.282C223.056 148.505 240.915 148.953 252.727 147.529C270.797 145.351 296.681 132.161 309.059 112.005C316.272 100.259 317.681 88.1312 313.246 75.9582C309.815 66.5412 299.904 58.8042 289.145 57.1462C280.127 55.7552 270.778 58.7782 265.305 64.8442C259.756 70.9912 258.433 80.5722 262.226 87.1322C264.19 90.5272 268.107 93.2752 272.449 94.3032C274.641 94.8232 278.864 95.3342 282.519 92.9302C284.206 91.834 286.258 91.4501 288.227 91.8626C290.196 92.2751 291.922 93.4503 293.027 95.1314C294.132 96.8124 294.527 98.8626 294.125 100.834C293.723 102.805 292.557 104.537 290.882 105.651C284.638 109.757 276.845 110.986 268.942 109.117C260.536 107.127 253.099 101.758 249.048 94.7532C241.977 82.5262 244.062 65.6582 254.004 54.6442C262.958 44.7262 277.311 39.9182 291.464 42.1012C307.718 44.6072 322.219 56.1192 327.549 70.7482C333.569 87.2702 331.66 104.292 322.031 119.972C306.993 144.459 276.7 159.973 254.548 162.643C251.236 163.043 247.93 163.228 244.647 163.228Z" fill="#BED9FD"/>
<path d="M52.157 399.897C49.911 399.897 47.65 399.727 45.391 399.379C29.136 396.872 14.635 385.36 9.30699 370.732C3.28699 354.211 5.19499 337.189 14.824 321.508C29.862 297.021 60.154 281.507 82.307 278.837C108.708 275.651 134.488 286.065 153.995 295.491C155.792 296.382 157.164 297.946 157.814 299.843C158.464 301.74 158.34 303.817 157.467 305.623C156.595 307.428 155.045 308.817 153.155 309.486C151.265 310.156 149.186 310.052 147.372 309.198C113.795 292.974 95.934 292.526 84.128 293.951C66.058 296.129 40.174 309.319 27.796 329.475C20.583 341.221 19.175 353.349 23.61 365.522C27.04 374.939 36.951 382.675 47.711 384.334C56.717 385.726 66.076 382.702 71.55 376.636C77.099 370.49 78.423 360.909 74.629 354.348C72.665 350.953 68.748 348.205 64.406 347.177C62.214 346.659 57.992 346.146 54.336 348.55C52.6492 349.618 50.6102 349.981 48.6585 349.56C46.7067 349.14 44.9984 347.969 43.9016 346.3C42.8048 344.632 42.4073 342.6 42.7947 340.641C43.1822 338.682 44.3236 336.954 45.973 335.829C52.217 331.723 60.009 330.493 67.913 332.363C76.319 334.353 83.756 339.722 87.807 346.727C94.878 358.955 92.794 375.823 82.85 386.836C75.325 395.171 63.984 399.896 52.157 399.897Z" fill="#BED9FD"/>
<path d="M507.211 43.7771C506.607 42.0602 505.626 40.5008 504.339 39.214C503.052 37.9271 501.493 36.9457 499.776 36.3421C470.116 25.9031 435.793 32.5241 412.073 56.2431C388.354 79.9621 381.733 114.285 392.172 143.946C392.776 145.663 393.757 147.222 395.044 148.509C396.331 149.796 397.89 150.778 399.607 151.381C429.268 161.819 463.59 155.199 487.31 131.48C511.029 107.76 517.649 73.4371 507.211 43.7771Z" fill="#70C6DB"/>
<path d="M507.211 43.7771C506.185 40.8722 504.093 38.466 501.359 37.0461C505.772 63.0691 497.952 90.7571 477.866 110.843C454.147 134.562 419.824 141.183 390.164 130.744C389.62 130.548 389.091 130.313 388.581 130.041C389.381 134.77 390.583 139.422 392.173 143.947C392.776 145.664 393.758 147.223 395.045 148.51C396.332 149.797 397.891 150.778 399.608 151.381C429.269 161.82 463.591 155.199 487.31 131.48C511.029 107.761 517.649 73.4371 507.211 43.7771Z" fill="#64B0CB"/>
<path d="M508.042 46.278L402.11 152.21L375.673 178.657C374.243 180.085 372.305 180.889 370.284 180.89C369.285 180.89 368.295 180.693 367.372 180.31C366.449 179.926 365.611 179.365 364.905 178.657C364.198 177.95 363.637 177.111 363.254 176.187C362.871 175.263 362.674 174.273 362.674 173.273C362.674 172.273 362.871 171.283 363.254 170.359C363.637 169.435 364.198 168.596 364.905 167.889L497.284 35.51C498.116 35.774 498.949 36.048 499.781 36.342C501.496 36.9487 503.054 37.9318 504.339 39.2191C505.625 40.5063 506.606 42.0651 507.21 43.781C507.504 44.614 507.778 45.446 508.042 46.278Z" fill="#5D91B9"/>
<path d="M508.042 46.2782L502.541 51.7792C502.581 46.8422 502.187 41.9113 501.364 37.0432C501.536 37.1342 501.699 37.2262 501.861 37.3172C502.681 37.7978 503.443 38.3698 504.134 39.0222C504.408 39.2862 504.672 39.5602 504.915 39.8442C505.037 39.9862 505.159 40.1382 505.28 40.2802C505.513 40.5742 505.737 40.8792 505.94 41.2042C506.458 41.9962 506.884 42.8682 507.209 43.7822C507.504 44.6142 507.778 45.4462 508.042 46.2782ZM418.795 135.525L375.673 178.657C374.243 180.086 372.305 180.889 370.284 180.89C369.285 180.89 368.295 180.693 367.372 180.31C366.449 179.927 365.611 179.365 364.905 178.657C364.198 177.95 363.637 177.111 363.254 176.187C362.871 175.263 362.674 174.273 362.674 173.273C362.674 172.273 362.871 171.283 363.254 170.359C363.637 169.436 364.198 168.596 364.905 167.889L399.39 133.404C405.754 134.864 412.266 135.576 418.795 135.525Z" fill="#4980AC"/>
<path d="M508.042 46.2782L502.541 51.7792C502.581 46.8422 502.187 41.9113 501.364 37.0432C502.637 37.7172 503.798 38.5392 504.916 39.8442C506.696 41.9162 507.202 43.6302 508.042 46.2782Z" fill="#4980AC"/>
<path d="M358.484 475.658C360.201 475.055 361.76 474.073 363.047 472.787C364.334 471.5 365.315 469.941 365.919 468.224C376.358 438.564 369.737 404.241 346.018 380.521C322.299 356.802 287.976 350.181 258.315 360.62C256.598 361.224 255.039 362.205 253.752 363.492C252.465 364.779 251.484 366.338 250.88 368.055C240.442 397.716 247.062 432.038 270.781 455.758C294.5 479.476 328.823 486.096 358.484 475.658Z" fill="#70C6DB"/>
<path d="M358.484 475.658C361.389 474.632 363.795 472.54 365.215 469.806C339.192 474.219 311.504 466.399 291.418 446.313C267.699 422.594 261.078 388.271 271.517 358.611C271.711 358.061 271.954 357.538 272.22 357.028C267.491 357.828 262.839 359.03 258.314 360.62C256.597 361.224 255.038 362.205 253.751 363.492C252.464 364.779 251.483 366.338 250.88 368.055C240.441 397.716 247.062 432.038 270.781 455.757C294.5 479.476 328.823 486.096 358.484 475.658Z" fill="#64B0CB"/>
<path d="M366.742 465.732C366.488 466.567 366.214 467.397 365.92 468.219C365.315 469.936 364.333 471.496 363.045 472.783C361.758 474.071 360.198 475.053 358.481 475.658C357.649 475.952 356.817 476.226 355.984 476.49L250.053 370.558L223.606 344.121C222.214 342.686 221.442 340.761 221.457 338.761C221.472 336.761 222.273 334.848 223.687 333.434C225.101 332.02 227.014 331.219 229.014 331.204C231.014 331.189 232.939 331.961 234.374 333.353L260.811 359.79L366.742 465.732Z" fill="#5D91B9"/>
<path d="M268.848 367.838C267.397 374.203 266.689 380.714 266.737 387.242L223.605 344.12C222.213 342.685 221.441 340.76 221.456 338.76C221.471 336.76 222.272 334.847 223.686 333.433C225.1 332.019 227.013 331.218 229.013 331.203C231.013 331.188 232.938 331.96 234.373 333.352L268.848 367.838ZM365.22 469.802C364.717 470.752 364.243 471.518 363.241 472.583C361.016 474.893 358.98 475.541 355.985 476.49L350.485 470.989C355.419 471.025 360.346 470.628 365.21 469.802H365.22Z" fill="#4980AC"/>
</g>
<defs>
<clipPath id="clip0_5_151">
<rect width="512" height="512" fill="white"/>
</clipPath>
</defs>
</svg>
